{"glyphs":{"0":{"ha":1360,"x_min":79,"x_max":1611,"o":"m 1603 838 q 1611 885 1611 863 q 1533 996 1611 954 q 1393 1029 1469 1029 l 468 1029 l 88 192 q 79 146 79 174 q 157 35 79 76 q 297 0 221 0 l 1222 0 l 1603 838 m 1019 110 l 432 110 q 342 176 342 110 q 351 219 342 199 l 671 919 l 1258 919 q 1349 853 1349 919 q 1339 811 1349 832 l 1019 110 z "},"1":{"ha":400,"x_min":-1,"x_max":728,"o":"m 728 1029 l 442 974 l -1 0 l 260 0 l 728 1029 z "},"2":{"ha":1350,"x_min":1,"x_max":1675,"o":"m 515 1025 l 417 915 l 1365 915 l 1268 700 q 1125 614 1243 644 q 964 592 1038 592 l 460 592 q 301 540 379 592 q 189 413 222 488 l 1 0 l 1210 0 l 1258 110 l 306 110 l 411 342 q 535 464 453 433 q 660 482 583 482 l 1125 482 q 1349 524 1246 482 q 1514 669 1471 575 l 1675 1025 l 515 1025 z "},"3":{"ha":1236,"x_min":0,"x_max":1507,"o":"m 1374 642 l 1504 928 q 1308 1028 1507 1028 l 517 1028 l 418 918 l 1138 918 q 1214 854 1224 904 l 1131 669 q 1058 594 1108 621 q 953 567 1008 567 l 306 567 l 210 463 l 906 463 q 999 397 999 463 q 989 358 999 379 l 904 174 q 772 114 869 124 l 100 114 l 0 0 l 842 0 q 1128 101 1031 0 l 1258 388 q 1265 428 1265 408 q 1217 514 1265 479 q 1374 642 1329 564 z "},"4":{"ha":1367,"x_min":208,"x_max":1699,"o":"m 1438 1029 l 1147 392 l 567 392 q 474 460 474 392 q 483 500 474 479 l 724 1029 l 471 1029 l 215 469 q 208 425 208 446 q 289 314 208 354 q 432 282 354 282 l 1099 282 l 969 0 l 1231 0 l 1699 1029 l 1438 1029 z "},"5":{"ha":1364,"x_min":0,"x_max":1692,"o":"m 1692 1024 l 1642 914 l 676 914 l 578 699 q 565 649 565 671 q 658 590 565 590 l 1303 590 q 1390 560 1357 590 q 1424 475 1424 529 q 1413 413 1424 446 l 1224 0 l 0 0 l 50 108 l 1019 108 l 1125 340 q 1143 408 1143 381 q 1004 481 1143 481 l 524 481 q 378 503 439 481 q 289 606 289 536 q 304 668 289 635 l 467 1024 l 1692 1024 z "},"6":{"ha":1364,"x_min":79,"x_max":1690,"o":"m 1200 596 l 521 596 l 619 813 q 818 919 697 919 l 1640 919 l 1690 1029 l 789 1029 q 582 985 697 1029 q 382 839 440 931 l 88 192 q 79 146 79 168 q 157 35 79 75 q 299 0 222 0 l 1224 0 l 1408 408 q 1417 454 1417 426 q 1340 564 1417 525 q 1200 596 1278 596 m 1019 110 l 433 110 q 339 178 339 110 q 349 219 339 199 l 471 486 l 1064 486 q 1151 422 1151 486 q 1140 378 1151 403 l 1019 110 z "},"7":{"ha":1281,"x_min":336,"x_max":1526,"o":"m 892 0 l 1261 811 q 1264 836 1264 824 q 1158 918 1264 918 l 336 918 l 386 1028 l 1286 1028 q 1439 992 1367 1028 q 1526 875 1526 947 q 1521 838 1526 857 l 1140 0 l 892 0 z "},"8":{"ha":1367,"x_min":78,"x_max":1610,"o":"m 1601 838 q 1610 885 1610 863 q 1532 996 1610 954 q 1392 1029 1468 1029 l 468 1029 l 306 675 q 297 629 297 650 q 332 550 297 583 l 250 550 l 86 192 q 78 146 78 168 q 156 35 78 76 q 296 0 219 0 l 1221 0 l 1407 408 q 1415 454 1415 432 q 1378 536 1415 501 l 1465 536 l 1601 838 m 1017 110 l 432 110 q 339 178 339 110 q 349 219 339 199 l 471 486 l 1063 486 q 1150 422 1150 486 q 1139 378 1150 403 l 1017 110 m 650 596 q 563 661 563 596 q 574 706 563 681 l 671 919 l 1257 919 q 1350 853 1350 919 q 1340 811 1350 832 l 1242 596 l 650 596 z "},"9":{"ha":1360,"x_min":-1,"x_max":1610,"o":"m 489 433 l 1168 433 l 1069 217 q 871 110 992 110 l 49 110 l -1 0 l 900 0 q 1107 44 992 0 q 1307 190 1249 99 l 1601 838 q 1610 885 1610 863 q 1531 996 1610 954 q 1390 1029 1467 1029 l 465 1029 l 281 622 q 272 575 272 597 q 350 465 272 506 q 489 433 413 433 m 669 919 l 1256 919 q 1350 851 1350 919 q 1340 811 1350 832 l 1218 543 l 625 543 q 538 608 538 543 q 547 651 538 631 l 669 919 z "}," ":{"ha":707,"x_min":0,"x_max":0,"o":""},"!":{"ha":400,"x_min":0,"x_max":726,"o":"m 465 1022 l 118 261 l 404 317 l 726 1022 l 465 1022 m 75 165 l 0 0 l 286 56 l 360 221 l 75 165 z "},"\"":{"ha":331,"x_min":240,"x_max":796,"o":"m 422 1031 l 382 940 l 240 742 l 286 742 l 539 940 l 581 1031 l 422 1031 m 638 1031 l 597 940 l 456 742 l 500 742 l 754 940 l 796 1031 l 638 1031 z "},"#":{"ha":1161,"x_min":214,"x_max":1375,"o":"m 1289 739 l 1375 849 l 1160 849 l 1243 1031 l 1060 994 l 993 849 l 765 849 l 847 1031 l 664 994 l 599 849 l 419 849 l 333 739 l 549 739 l 479 588 l 300 588 l 214 478 l 429 478 l 329 260 l 513 296 l 596 478 l 825 478 l 725 260 l 908 296 l 992 478 l 1169 478 l 1257 588 l 1042 588 l 1110 739 l 1289 739 m 875 588 l 646 588 l 715 739 l 943 739 l 875 588 z "},"$":{"ha":1356,"x_min":65,"x_max":1626,"o":"m 1301 582 l 953 582 l 1042 776 l 1528 776 l 1626 885 l 1092 885 l 1154 1024 l 1003 1024 l 940 885 l 711 885 q 508 840 618 885 q 318 693 372 785 l 218 472 l 753 472 l 657 263 l 210 263 l 65 138 l 600 138 l 538 0 l 700 26 l 751 138 l 1038 138 q 1346 278 1240 138 l 1425 453 q 1439 506 1439 483 q 1301 582 1439 582 m 521 582 l 560 667 q 635 746 582 715 q 744 776 689 776 l 890 776 l 801 582 l 521 582 m 1110 322 q 975 263 1072 263 l 808 263 l 903 472 l 1063 472 q 1129 469 1117 472 q 1157 440 1157 463 q 1147 404 1157 425 l 1110 322 z "},"%":{"ha":1413,"x_min":250,"x_max":1493,"o":"m 356 778 l 250 547 l 574 547 q 699 575 631 547 q 817 668 783 610 l 921 897 l 596 897 q 471 869 539 897 q 356 778 381 833 m 507 758 q 618 828 539 828 l 731 828 l 665 685 q 551 615 633 615 l 442 615 l 507 758 m 928 375 l 822 144 l 1146 144 q 1272 172 1206 144 q 1389 265 1356 207 l 1493 494 l 1168 494 q 1033 463 1101 494 q 928 375 958 428 m 1079 356 q 1190 425 1111 425 l 1304 425 l 1239 282 q 1124 213 1207 213 l 1014 213 l 1079 356 m 553 0 l 1361 1029 l 1175 1029 l 367 0 l 553 0 z "},"&":{"ha":1326,"x_min":75,"x_max":1468,"o":"m 1460 846 q 1468 892 1468 864 q 1390 1001 1468 961 q 1251 1033 1328 1033 l 467 1033 l 307 682 q 299 635 299 657 q 304 600 299 617 l 269 600 l 83 192 q 75 146 75 168 q 153 35 75 76 q 293 0 217 0 l 1075 0 l 1153 171 l 1215 171 l 1314 279 l 1201 279 l 1269 428 l 990 371 l 949 279 l 881 279 q 797 332 828 283 l 668 490 l 1299 490 l 1460 846 m 813 171 l 899 171 l 871 110 l 428 110 q 336 178 336 110 q 346 219 336 199 l 469 490 l 478 490 l 672 249 q 813 171 718 171 m 1192 815 l 1094 600 l 651 600 q 560 668 560 600 q 569 710 560 689 l 667 924 l 1115 924 q 1203 860 1203 924 q 1192 815 1203 840 z "},"'":{"ha":250,"x_min":240,"x_max":581,"o":"m 422 1033 l 382 943 l 240 744 l 286 744 l 539 943 l 581 1033 l 422 1033 z "},"(":{"ha":651,"x_min":78,"x_max":985,"o":"m 565 110 l 429 110 q 342 175 342 110 q 353 219 342 194 l 622 811 q 696 890 644 861 q 804 919 747 919 l 872 919 l 985 1029 l 769 1029 q 574 986 679 1029 q 382 842 444 933 l 86 192 q 78 144 78 168 q 154 33 78 75 q 294 0 218 0 l 453 0 l 565 110 z "},")":{"ha":657,"x_min":3,"x_max":908,"o":"m 421 919 l 557 919 q 646 856 646 919 q 635 811 646 836 l 365 219 q 290 140 343 171 q 183 110 238 110 l 114 110 l 3 0 l 218 0 q 413 43 308 0 q 604 189 543 97 l 900 838 q 908 885 908 863 q 832 994 908 954 q 693 1029 768 1029 l 533 1029 l 421 919 z "},"*":{"ha":731,"x_min":174,"x_max":928,"o":"m 928 732 l 708 733 l 897 863 l 893 965 l 667 810 l 750 994 l 657 1031 l 557 811 l 486 940 l 360 889 l 444 733 l 261 733 l 174 624 l 393 624 l 204 494 l 210 390 l 436 546 l 353 363 l 446 326 l 546 546 l 615 415 l 743 468 l 658 624 l 842 624 l 928 732 z "},"+":{"ha":931,"x_min":153,"x_max":1003,"o":"m 1003 540 l 733 540 l 864 825 l 603 825 l 472 540 l 240 540 l 153 431 l 422 431 l 293 146 l 554 146 l 683 431 l 917 431 l 1003 540 z "},",":{"ha":293,"x_min":-207,"x_max":290,"o":"m 63 133 l 1 0 l -207 -293 l -140 -293 l 229 0 l 290 133 l 63 133 z "},"-":{"ha":846,"x_min":228,"x_max":982,"o":"m 896 496 l 982 606 l 315 607 l 228 496 l 896 496 z "},"‐":{"ha":846,"x_min":228,"x_max":982,"o":"m 896 496 l 982 606 l 315 607 l 228 496 l 896 496 z "},".":{"ha":400,"x_min":0,"x_max":360,"o":"m 75 165 l 0 0 l 286 56 l 360 221 l 75 165 z "},"/":{"ha":315,"x_min":0,"x_max":644,"o":"m 468 1029 l 0 0 l 175 0 l 644 1029 l 468 1029 z "},":":{"ha":368,"x_min":47,"x_max":518,"o":"m 518 640 l 290 640 l 217 478 l 444 478 l 518 640 m 349 267 l 121 267 l 47 106 l 275 106 l 349 267 z "},";":{"ha":442,"x_min":-56,"x_max":594,"o":"m 594 638 l 365 638 l 292 476 l 521 476 l 594 638 m 214 304 l 153 171 l -56 -122 l 11 -122 l 381 171 l 442 304 l 214 304 z "},"<":{"ha":685,"x_min":167,"x_max":881,"o":"m 546 0 l 417 365 l 881 733 l 631 733 l 167 365 l 296 0 l 546 0 z "},"=":{"ha":839,"x_min":108,"x_max":967,"o":"m 879 465 l 967 575 l 299 575 l 211 465 l 879 465 m 776 239 l 864 349 l 196 349 l 108 239 l 776 239 z "},">":{"ha":685,"x_min":0,"x_max":713,"o":"m 0 0 l 463 367 l 326 749 l 576 749 l 713 367 l 250 0 l 0 0 z "},"?":{"ha":1179,"x_min":168,"x_max":1475,"o":"m 243 164 l 168 0 l 451 56 l 526 219 l 243 164 m 1251 1035 l 335 1035 l 333 925 l 1118 925 q 1213 857 1213 925 q 1203 817 1213 838 l 1124 643 l 643 643 q 403 514 461 643 l 290 267 l 569 317 l 638 465 q 699 526 660 514 q 782 533 719 533 l 1326 533 l 1468 843 q 1475 886 1475 865 q 1396 1000 1475 958 q 1251 1035 1331 1035 z "},"@":{"ha":1529,"x_min":31,"x_max":1699,"o":"m 881 599 q 632 469 692 599 l 532 251 q 526 218 526 239 q 706 113 526 113 l 1438 113 l 1690 668 q 1699 714 1699 692 q 1621 825 1699 785 q 1479 860 1556 860 l 693 860 q 497 817 601 860 q 306 671 368 764 l 39 85 q 31 39 31 61 q 107 -72 31 -32 q 247 -107 171 -107 l 1300 -107 l 1249 3 l 382 3 q 293 68 293 3 q 304 113 293 89 l 546 640 q 620 719 568 689 q 728 750 672 750 l 1343 750 q 1440 681 1440 750 q 1431 640 1440 661 l 1411 599 l 881 599 m 1246 236 l 883 236 q 808 296 797 244 l 865 421 q 929 482 888 469 q 1017 489 951 489 l 1361 489 l 1246 236 z "},"A":{"ha":1357,"x_min":58,"x_max":1514,"o":"m 1464 -249 l 1229 -249 q 1142 -185 1142 -249 q 1153 -140 1142 -165 l 1469 556 q 1478 603 1478 581 q 1400 714 1478 674 q 1258 747 1336 747 l 340 747 l 290 638 l 1124 638 q 1188 622 1161 638 q 1219 569 1219 604 q 1210 529 1219 551 l 1190 486 l 413 486 q 163 358 221 486 l 64 140 q 58 107 58 128 q 236 0 58 0 l 968 0 l 893 -167 q 879 -221 879 -197 q 957 -326 879 -287 q 1094 -358 1021 -358 l 1514 -358 l 1464 -249 m 414 125 q 340 185 328 125 l 397 310 q 461 371 419 358 q 549 378 483 378 l 1140 378 l 1025 125 l 414 125 z "},"B":{"ha":1367,"x_min":0,"x_max":1492,"o":"m 1268 747 l 600 747 l 642 838 q 650 885 650 863 q 572 994 650 954 q 432 1029 507 1029 l 13 1029 l 63 919 l 297 919 q 382 858 382 919 q 369 811 382 839 l 0 0 l 988 0 q 1276 106 1176 0 l 1483 558 q 1492 604 1492 582 q 1411 714 1492 674 q 1268 747 1346 747 m 1056 183 q 924 124 1019 124 l 317 124 l 550 638 l 1133 638 q 1224 571 1224 638 q 1214 528 1224 549 l 1056 183 z "},"C":{"ha":1360,"x_min":79,"x_max":1485,"o":"m 432 108 q 340 178 340 108 q 350 219 340 199 l 542 639 l 1133 639 q 1224 572 1224 639 q 1214 529 1224 550 l 1179 453 l 1428 453 l 1476 560 q 1485 607 1485 585 q 1407 717 1485 676 q 1268 747 1346 747 l 340 747 l 88 192 q 79 146 79 168 q 157 35 79 76 q 297 0 221 0 l 1222 0 l 1271 108 l 432 108 z "},"D":{"ha":1349,"x_min":39,"x_max":2133,"o":"m 1714 1029 q 1515 985 1622 1029 q 1331 838 1385 929 l 1289 747 l 626 747 q 433 704 535 747 q 254 558 307 650 l 49 106 q 221 0 39 0 l 1208 0 l 1581 817 l 1579 817 q 1647 892 1600 865 q 1749 919 1694 919 l 1982 919 l 2133 1029 l 1714 1029 m 1006 124 l 399 124 q 322 183 310 124 l 479 528 q 556 608 501 576 q 661 638 606 638 l 1239 638 l 1006 124 z "},"E":{"ha":1349,"x_min":39,"x_max":1519,"o":"m 358 268 l 1147 268 q 1311 329 1250 268 q 1361 400 1344 361 l 1519 747 l 624 747 q 432 706 532 747 q 256 563 308 654 l 47 107 q 218 0 39 0 l 1211 0 l 1265 124 l 396 124 q 319 183 308 132 l 358 268 m 658 639 l 1253 639 l 1174 465 q 1118 396 1158 429 q 1014 378 1078 378 l 408 378 l 476 529 q 551 608 499 578 q 658 639 603 639 z "},"F":{"ha":944,"x_min":-565,"x_max":1276,"o":"m 864 922 l 1226 922 l 1276 1032 l 829 1032 q 626 989 735 1032 q 439 843 479 931 l 396 750 l 72 750 l 22 640 l 346 640 l -8 -137 q -79 -215 -31 -185 q -181 -246 -128 -246 l -415 -246 l -565 -356 l -146 -356 q 53 -311 -53 -356 q 238 -164 185 -256 l 606 640 l 1029 640 l 1079 750 l 656 750 q 685 816 664 768 q 758 893 707 864 q 864 922 810 922 z "},"G":{"ha":1336,"x_min":-144,"x_max":2122,"o":"m 1703 1029 q 1510 985 1611 1029 q 1331 838 1383 929 l 1289 747 l 661 747 q 454 704 567 747 q 256 558 313 650 l 49 106 q 47 92 47 100 q 211 0 47 0 l 949 0 l 883 -144 q 683 -250 806 -250 l -4 -250 l -144 -360 l 711 -360 q 919 -315 804 -360 q 1118 -171 1061 -261 l 1565 811 q 1636 889 1588 858 q 1738 919 1685 919 l 1971 919 l 2122 1029 l 1703 1029 m 1004 124 l 396 124 q 331 169 331 124 q 333 183 331 178 l 490 528 q 574 610 514 579 q 689 638 629 638 l 1239 638 l 1004 124 z "},"H":{"ha":1367,"x_min":0,"x_max":1526,"o":"m 1475 -250 l 1242 -250 q 1153 -186 1153 -250 q 1164 -140 1153 -164 l 1483 558 q 1490 604 1490 582 q 1411 715 1490 675 q 1268 747 1346 747 l 601 747 l 729 1028 l 443 972 l 0 0 l 260 0 l 551 638 l 1132 638 q 1225 569 1225 638 q 1215 528 1225 549 l 899 -168 q 889 -215 889 -189 q 965 -326 889 -285 q 1106 -360 1029 -360 l 1526 -360 l 1475 -250 z "},"I":{"ha":401,"x_min":-81,"x_max":731,"o":"m 656 868 l 731 1032 l 444 976 l 369 813 l 656 868 m 508 -247 l 274 -247 q 186 -183 186 -247 q 197 -139 186 -164 l 615 781 l 329 725 l -76 -165 q -81 -203 -81 -185 q -4 -321 -81 -278 q 139 -357 58 -357 l 558 -357 l 508 -247 z "},"J":{"ha":401,"x_min":-654,"x_max":731,"o":"m 656 871 l 731 1035 l 444 979 l 369 815 l 656 871 m -208 -354 q -6 -311 -114 -354 q 183 -167 131 -257 l 615 783 l 328 725 l -65 -139 q -142 -217 -86 -186 q -243 -244 -192 -244 l -549 -244 l -654 -354 l -208 -354 z "},"K":{"ha":1367,"x_min":1,"x_max":1549,"o":"m 1476 -250 l 1243 -250 q 1156 -185 1156 -250 q 1167 -140 1156 -165 l 1367 299 q 1374 343 1374 321 q 1318 439 1374 400 q 1467 564 1422 490 l 1549 747 l 1289 747 l 1221 594 q 1151 516 1200 546 q 1050 486 1103 486 l 482 486 l 729 1028 l 444 972 l 1 0 l 260 0 l 432 376 l 1029 376 q 1110 308 1110 376 q 1099 268 1110 293 l 900 -168 q 892 -215 892 -193 q 968 -326 892 -285 q 1108 -360 1032 -360 l 1528 -360 l 1476 -250 z "},"L":{"ha":485,"x_min":-85,"x_max":721,"o":"m 721 1033 l 444 978 l -76 -164 q -85 -210 -85 -187 q -7 -322 -85 -281 q 133 -356 56 -356 l 578 -356 l 526 -246 l 268 -246 q 176 -179 176 -246 q 188 -136 176 -161 l 721 1033 z "},"M":{"ha":1750,"x_min":0,"x_max":1911,"o":"m 1861 -250 l 1626 -250 q 1539 -186 1539 -250 q 1550 -142 1539 -167 l 1868 560 q 1876 604 1876 578 q 1797 715 1876 675 q 1653 747 1735 747 l 342 747 l 0 0 l 258 0 l 550 639 l 971 639 l 681 0 l 939 0 l 1229 639 l 1518 639 q 1611 571 1611 639 q 1601 529 1611 550 l 1283 -168 q 1275 -215 1275 -193 q 1351 -326 1275 -285 q 1492 -360 1415 -360 l 1911 -360 l 1861 -250 z "},"N":{"ha":1356,"x_min":0,"x_max":1519,"o":"m 1469 -250 l 1236 -250 q 1144 -183 1144 -250 q 1154 -142 1144 -162 l 1474 560 q 1481 599 1481 581 q 1388 714 1481 672 q 1229 747 1314 747 l 340 747 l 0 0 l 250 0 l 540 638 l 1094 638 q 1174 621 1139 638 q 1218 561 1218 600 q 1210 531 1218 549 l 892 -168 q 883 -215 883 -193 q 960 -326 883 -285 q 1100 -360 1024 -360 l 1519 -360 l 1469 -250 z "},"O":{"ha":1351,"x_min":78,"x_max":1483,"o":"m 1267 749 l 339 749 l 86 192 q 78 146 78 174 q 156 35 78 76 q 296 0 219 0 l 1221 0 l 1475 560 q 1483 607 1483 585 q 1406 717 1483 676 q 1267 749 1343 749 m 1017 110 l 431 110 q 339 178 339 110 q 349 219 339 199 l 540 639 l 1132 639 q 1219 574 1219 639 q 1208 529 1219 554 l 1017 110 z "},"P":{"ha":1367,"x_min":-560,"x_max":1493,"o":"m 1269 747 q 1413 715 1347 747 q 1493 604 1493 675 q 1485 560 1493 578 l 1279 107 q 989 0 1178 0 l 250 0 l 151 -217 q -137 -360 64 -360 l -560 -360 l -421 -251 l -240 -251 q -157 -235 -190 -251 q -65 -142 -108 -210 l 340 747 l 1269 747 m 549 638 l 314 124 l 925 124 q 1057 183 1021 124 l 1215 529 q 1225 571 1225 550 q 1135 638 1225 638 l 549 638 z "},"Q":{"ha":1333,"x_min":44,"x_max":1536,"o":"m 1215 -250 q 1121 -182 1121 -250 q 1131 -142 1121 -162 l 1536 749 l 660 749 q 453 706 564 749 q 254 560 313 651 l 47 107 q 44 82 44 93 q 178 0 44 0 l 953 0 l 875 -168 q 863 -222 863 -194 q 942 -328 863 -289 q 1081 -360 1007 -360 l 1444 -360 l 1393 -250 l 1215 -250 m 1013 124 l 396 124 q 331 171 331 131 q 332 183 331 178 l 490 529 q 578 613 515 582 q 688 638 631 638 l 1247 638 l 1013 124 z "},"R":{"ha":1097,"x_min":-626,"x_max":1264,"o":"m 1042 747 l 340 747 l -65 -142 q -137 -221 -87 -192 q -243 -250 -187 -250 l -476 -250 l -626 -360 l -207 -360 q -8 -315 -114 -360 q 176 -168 124 -260 l 543 638 l 906 638 q 1000 569 1000 638 q 990 529 1000 550 l 956 453 l 1208 453 l 1257 560 q 1264 604 1264 583 q 1185 715 1264 675 q 1042 747 1119 747 z "},"S":{"ha":1349,"x_min":-165,"x_max":1557,"o":"m 1233 444 l 454 444 l 493 529 q 569 608 515 579 q 676 638 619 638 l 1460 638 l 1557 747 l 643 747 q 440 703 550 747 q 251 556 304 647 l 150 335 l 994 335 q 1061 332 1047 335 q 1089 303 1089 326 q 1079 267 1089 289 q 878 -175 906 -129 q 743 -235 840 -235 l -6 -235 l -165 -358 l 806 -358 q 1114 -219 1008 -358 l 1357 315 q 1371 368 1371 346 q 1233 444 1371 444 z "},"T":{"ha":1119,"x_min":-74,"x_max":1331,"o":"m 554 642 l 1282 642 l 1331 747 l 601 747 l 731 1031 l 456 976 l 351 747 l 142 747 l 93 642 l 303 642 l -65 -165 q -74 -212 -74 -190 q 3 -324 -74 -283 q 143 -357 65 -357 l 972 -357 l 922 -247 l 278 -247 q 188 -182 188 -247 q 199 -139 188 -164 l 554 642 z "},"U":{"ha":1275,"x_min":-51,"x_max":1510,"o":"m 1257 747 l 967 110 l 378 110 q 285 176 285 110 q 296 218 285 193 l 576 835 q 585 881 585 858 q 508 992 585 951 q 368 1025 446 1025 l -51 1025 l -1 917 l 232 917 q 324 849 324 917 q 314 807 324 828 l 33 192 q 25 144 25 167 q 103 33 25 75 q 243 0 165 0 l 1169 0 l 1510 747 l 1257 747 z "},"V":{"ha":1356,"x_min":-4,"x_max":1556,"o":"m 1304 747 l 1013 110 l 683 110 l 415 376 l 624 835 q 632 881 632 858 q 556 992 632 951 q 415 1025 493 1025 l -4 1025 l 47 917 l 281 917 q 372 849 372 917 q 361 807 372 832 l 167 376 l 553 0 l 1215 0 l 1556 747 l 1304 747 z "},"W":{"ha":1747,"x_min":-1,"x_max":1947,"o":"m 1689 747 l 1399 110 l 976 110 l 1268 747 l 1008 747 l 718 110 l 429 110 q 336 178 336 110 q 346 218 336 197 l 626 835 q 636 882 636 856 q 558 992 636 950 q 418 1026 493 1026 l -1 1026 l 50 917 l 283 917 q 375 850 375 917 q 365 807 375 828 l 79 189 q 71 143 71 165 q 151 33 71 75 q 294 0 217 0 l 1607 0 l 1947 747 l 1689 747 z "},"X":{"ha":1331,"x_min":0,"x_max":1533,"o":"m 1439 -251 l 1206 -251 q 1115 -186 1115 -251 q 1126 -143 1115 -168 l 1329 301 q 1339 350 1339 329 q 1313 406 1339 386 q 1425 511 1403 463 l 1533 747 l 1281 747 l 1186 539 q 1110 460 1164 490 q 1000 429 1056 429 l 583 429 q 519 444 546 429 q 488 499 488 464 q 497 539 488 518 l 592 747 l 340 747 l 233 511 q 226 474 226 496 q 249 406 226 439 q 138 301 168 369 l 0 0 l 251 0 l 367 253 q 417 308 385 293 q 492 319 442 319 l 992 319 q 1065 286 1065 319 q 1057 253 1065 271 l 864 -171 q 856 -217 856 -194 q 932 -328 856 -287 q 1071 -361 993 -361 l 1490 -361 l 1439 -251 z "},"Y":{"ha":1336,"x_min":-171,"x_max":1536,"o":"m 1288 747 l 1003 124 l 394 124 q 328 171 328 131 q 331 183 328 178 l 588 747 l 338 747 l 46 107 q 44 92 44 100 q 210 0 44 0 l 947 0 l 882 -143 q 682 -250 804 -250 l -7 -250 l -171 -360 l 710 -360 q 918 -315 803 -360 q 1118 -171 1061 -260 l 1536 747 l 1288 747 z "},"Z":{"ha":1222,"x_min":-164,"x_max":1419,"o":"m 340 747 l 292 638 l 1111 638 l 1065 538 q 993 458 1043 488 q 888 429 943 429 l 386 429 q 138 301 196 429 l -164 -361 l 1001 -361 l 965 -251 l 140 -251 l 369 253 q 465 314 392 300 q 585 319 496 319 l 922 319 q 1122 363 1014 319 q 1310 507 1256 415 l 1419 747 l 340 747 z "},"[":{"ha":650,"x_min":74,"x_max":979,"o":"m 347 219 l 667 919 l 868 919 l 979 1029 l 464 1029 l 82 192 q 74 144 74 168 q 150 33 74 75 q 290 0 214 0 l 449 0 l 561 110 l 425 110 q 336 175 336 110 q 347 219 336 194 z "},"\\":{"ha":717,"x_min":0,"x_max":644,"o":"m 469 0 l 0 1029 l 176 1029 l 644 0 l 469 0 z "},"]":{"ha":656,"x_min":0,"x_max":907,"o":"m 632 811 l 313 110 l 113 110 l 0 0 l 517 0 l 897 838 q 907 885 907 858 q 831 996 907 954 q 690 1029 767 1029 l 531 1029 l 419 919 l 554 919 q 643 856 643 919 q 632 811 643 836 z "},"^":{"ha":683,"x_min":278,"x_max":835,"o":"m 464 635 l 647 833 l 649 635 l 835 635 l 832 1033 l 646 1033 l 278 635 l 464 635 z "},"_":{"ha":960,"x_min":1,"x_max":957,"o":"m 871 0 l 957 110 l 88 111 l 1 0 l 871 0 z "},"`":{"ha":138,"x_min":10,"x_max":214,"o":"m 214 1033 l 164 925 l 124 725 l 79 725 l 10 925 l 58 1033 l 214 1033 z "},"a":{"ha":1356,"x_min":60,"x_max":1479,"o":"m 1260 747 l 342 747 l 292 638 l 1125 638 q 1189 622 1163 638 q 1221 569 1221 604 q 1211 529 1221 551 l 1192 486 l 414 486 q 164 358 222 486 l 65 140 q 60 107 60 128 q 238 0 60 0 l 1218 0 l 1471 556 q 1479 603 1479 581 q 1401 714 1479 674 q 1260 747 1338 747 m 415 125 q 342 185 329 125 l 399 310 q 463 371 421 358 q 550 378 485 378 l 1142 378 l 1026 125 l 415 125 z "},"b":{"ha":1369,"x_min":0,"x_max":1493,"o":"m 1269 747 l 601 747 l 731 1029 l 444 974 l 0 0 l 989 0 q 1278 107 1178 0 l 1485 560 q 1493 604 1493 583 q 1413 715 1493 674 q 1269 747 1350 747 m 1215 529 l 1057 183 q 925 124 1021 124 l 317 124 l 551 639 l 1135 639 q 1225 572 1225 639 q 1215 529 1225 550 z "},"c":{"ha":1358,"x_min":76,"x_max":1482,"o":"m 429 108 q 336 178 336 108 q 347 219 336 194 l 538 639 l 1129 639 q 1221 572 1221 639 q 1210 529 1221 554 l 1175 453 l 1425 453 l 1474 560 q 1482 607 1482 585 q 1406 715 1482 676 q 1265 747 1343 747 l 338 747 l 85 192 q 76 146 76 168 q 154 33 76 75 q 294 0 217 0 l 1218 0 l 1268 108 l 429 108 z "},"d":{"ha":1347,"x_min":38,"x_max":1676,"o":"m 1675 1029 m 1676 1029 l 1392 974 l 1289 747 l 625 747 q 432 704 535 747 q 253 560 306 651 l 46 107 q 219 0 38 0 l 1208 0 l 1676 1029 m 397 124 q 319 183 310 132 l 478 529 q 552 608 500 578 q 660 639 604 639 l 1239 639 l 1004 124 l 397 124 z "},"e":{"ha":1347,"x_min":36,"x_max":1517,"o":"m 354 268 l 1143 268 q 1308 329 1250 268 q 1358 400 1342 364 l 1517 747 l 619 747 q 429 706 529 747 q 253 563 306 654 l 44 107 q 214 0 36 0 l 1207 0 l 1263 124 l 392 124 q 315 183 306 132 l 354 268 m 654 639 l 1249 639 l 1171 465 q 1114 396 1156 432 q 1011 378 1075 378 l 404 378 l 474 529 q 548 608 496 578 q 654 639 600 639 z "},"f":{"ha":768,"x_min":6,"x_max":1258,"o":"m 846 919 l 1210 919 l 1258 1029 l 811 1029 q 610 986 718 1029 q 421 842 474 932 l 378 747 l 56 747 l 6 639 l 329 639 l 38 0 l 297 0 l 589 639 l 1011 639 l 1061 747 l 639 747 q 668 813 647 768 l 668 813 q 742 890 693 861 q 846 919 792 919 z "},"g":{"ha":1333,"x_min":-58,"x_max":1536,"o":"m 658 749 q 451 706 564 749 q 251 560 310 651 l 46 107 q 43 92 43 101 q 208 0 43 0 l 946 0 l 881 -143 q 681 -250 803 -250 l -8 -250 l -58 -360 l 708 -360 q 917 -315 801 -360 q 1117 -169 1058 -261 l 1536 749 l 658 749 m 1003 124 l 393 124 q 328 171 328 131 q 331 183 328 178 l 488 529 q 571 610 510 579 q 686 639 628 639 l 1238 639 l 1003 124 z "},"h":{"ha":1369,"x_min":1,"x_max":1492,"o":"m 261 0 l 551 639 l 1133 639 q 1226 571 1226 639 q 1217 529 1226 550 l 975 0 l 1229 0 l 1483 560 q 1492 606 1492 578 q 1413 715 1492 675 q 1268 747 1349 747 l 601 747 l 731 1029 l 444 974 l 1 0 l 261 0 z "},"i":{"ha":403,"x_min":3,"x_max":732,"o":"m 263 0 l 614 772 l 329 717 l 3 0 l 263 0 m 657 867 l 732 1031 l 447 975 l 374 813 l 657 867 z "},"j":{"ha":403,"x_min":-650,"x_max":731,"o":"m -649 -356 m 656 869 l 731 1033 l 446 978 l 372 815 l 656 869 m -206 -356 q -4 -312 -114 -356 q 183 -168 131 -260 l 613 775 l 328 718 l -64 -142 q -140 -219 -86 -189 q -240 -247 -189 -247 l -600 -247 l -650 -356 l -206 -356 z "},"k":{"ha":1369,"x_min":0,"x_max":1543,"o":"m 1283 735 l 1219 596 q 1149 517 1197 547 q 1049 488 1101 488 l 481 488 l 728 1029 l 443 974 l 0 0 l 260 0 l 431 378 l 1029 378 q 1110 310 1110 369 q 1100 269 1110 290 l 978 1 l 1229 1 l 1365 299 q 1374 343 1374 322 q 1317 440 1374 400 q 1465 565 1421 492 l 1543 735 l 1283 735 z "},"l":{"ha":718,"x_min":99,"x_max":760,"o":"m 739 1028 l 463 972 l 107 192 q 99 144 99 167 q 176 33 99 75 q 317 0 240 0 l 760 0 l 710 110 l 451 110 q 360 176 360 110 q 371 218 360 193 l 739 1028 z "},"m":{"ha":1754,"x_min":0,"x_max":1876,"o":"m 1653 747 l 340 747 l 0 0 l 258 0 l 549 639 l 971 639 l 679 0 l 939 0 l 1229 639 l 1518 639 q 1611 571 1611 639 q 1601 529 1611 550 l 1360 0 l 1613 0 l 1868 560 q 1876 606 1876 583 q 1796 715 1876 675 q 1653 747 1732 747 z "},"n":{"ha":1368,"x_min":0,"x_max":1492,"o":"m 1268 747 l 340 747 l 0 0 l 258 0 l 549 639 l 1133 639 q 1226 571 1226 639 q 1217 529 1226 550 l 975 0 l 1229 0 l 1483 560 q 1492 606 1492 578 q 1413 715 1492 675 q 1268 747 1349 747 z "},"o":{"ha":1357,"x_min":82,"x_max":1488,"o":"m 1271 749 l 343 749 l 90 192 q 82 146 82 174 q 160 35 82 76 q 300 0 224 0 l 1225 0 l 1479 560 q 1488 607 1488 585 q 1410 717 1488 676 q 1271 749 1347 749 m 1021 110 l 435 110 q 343 178 343 110 q 353 219 343 199 l 544 639 l 1136 639 q 1224 574 1224 639 q 1213 529 1224 554 l 1021 110 z "},"p":{"ha":1369,"x_min":-164,"x_max":1494,"o":"m 1271 747 l 342 747 l -164 -361 l 86 -361 l 251 0 l 990 0 q 1279 107 1179 0 l 1486 560 q 1494 606 1494 583 q 1415 715 1494 675 q 1271 747 1351 747 m 1058 183 q 926 124 1022 124 l 315 124 l 550 639 l 1136 639 q 1226 572 1226 639 q 1217 529 1226 550 l 1058 183 z "},"q":{"ha":1336,"x_min":46,"x_max":1538,"o":"m 789 -361 l 1032 -361 l 1538 749 l 661 749 q 454 706 567 749 q 256 560 313 651 l 49 107 q 46 82 46 94 q 179 0 46 0 l 953 0 l 789 -361 m 396 124 q 331 171 331 131 q 333 183 331 178 l 490 529 q 574 610 513 579 q 689 639 631 639 l 1249 639 l 1014 124 l 396 124 z "},"r":{"ha":1094,"x_min":-1,"x_max":1265,"o":"m 1043 747 l 340 747 l -1 0 l 254 0 l 544 639 l 907 639 q 1001 571 1001 639 q 992 529 1001 550 l 957 453 l 1208 453 l 1257 560 q 1265 606 1265 583 q 1186 715 1265 675 q 1043 747 1122 747 z "},"s":{"ha":1353,"x_min":11,"x_max":1572,"o":"m 1249 444 l 468 444 l 507 529 q 583 608 529 579 q 690 638 633 638 l 1474 638 l 1572 747 l 657 747 q 454 703 564 747 q 265 556 318 647 l 164 335 l 1010 335 q 1075 332 1063 335 q 1104 303 1104 325 q 1093 267 1104 290 l 1056 185 q 921 125 1018 125 l 68 125 l 11 0 l 983 0 q 1292 140 1188 0 l 1372 315 q 1385 368 1385 343 q 1249 444 1385 444 z "},"t":{"ha":1189,"x_min":118,"x_max":1356,"o":"m 579 635 l 1307 635 l 1356 742 l 628 742 l 757 1025 l 481 969 l 378 742 l 168 742 l 119 635 l 329 635 l 126 190 q 118 144 118 167 q 194 33 118 74 q 333 0 256 0 l 1163 0 l 1113 108 l 468 108 q 378 175 378 108 q 389 217 378 192 l 579 635 z "},"u":{"ha":1361,"x_min":79,"x_max":1564,"o":"m 1311 747 l 1021 110 l 432 110 q 340 178 340 110 q 350 219 340 199 l 590 747 l 340 747 l 88 192 q 79 146 79 168 q 157 35 79 76 q 297 0 221 0 l 1224 0 l 1564 747 l 1311 747 z "},"v":{"ha":1361,"x_min":172,"x_max":1561,"o":"m 1310 747 l 1018 110 l 689 110 l 421 378 l 590 747 l 342 747 l 172 378 l 558 0 l 1221 0 l 1561 747 l 1310 747 z "},"w":{"ha":1751,"x_min":78,"x_max":1954,"o":"m 301 0 l 1614 0 l 1954 747 l 1696 747 l 1406 110 l 983 110 l 1274 747 l 1015 747 l 725 110 l 436 110 q 343 178 343 110 q 353 219 343 199 l 594 747 l 340 747 l 86 189 q 78 143 78 165 q 158 32 78 72 q 301 0 224 0 z "},"x":{"ha":1339,"x_min":1,"x_max":1539,"o":"m 1432 513 l 1539 749 l 1286 749 l 1192 540 q 1115 461 1169 492 q 1004 431 1061 431 l 588 431 q 524 446 550 431 q 490 500 490 465 q 500 540 490 519 l 596 749 l 343 749 l 235 513 q 228 475 228 497 q 251 406 228 440 q 139 301 171 371 l 1 0 l 254 0 l 369 254 q 494 321 400 321 l 997 321 q 1071 288 1071 321 q 1061 254 1071 275 l 946 0 l 1199 0 l 1336 301 q 1346 350 1346 329 q 1318 406 1346 386 q 1432 513 1400 457 z "},"y":{"ha":1336,"x_min":-60,"x_max":1539,"o":"m -60 -365 m 1290 747 l 1006 122 l 396 122 q 331 169 331 129 q 332 182 331 176 l 590 747 l 340 747 l 47 106 q 46 90 46 99 q 211 0 46 0 l 949 0 l 883 -144 q 683 -251 807 -251 l 53 -251 l -54 -361 l 713 -361 q 921 -317 806 -361 q 1121 -171 1063 -262 l 1539 747 l 1290 747 z "},"z":{"ha":1253,"x_min":0,"x_max":1424,"o":"m 400 749 l 292 639 l 1114 639 l 1068 539 q 996 460 1046 489 q 890 431 946 431 l 386 431 q 138 301 196 431 l 0 0 l 1082 0 l 1190 110 l 304 110 l 369 253 q 467 314 392 300 q 586 321 506 321 l 925 321 q 1125 364 1017 321 q 1314 508 1260 418 l 1424 749 l 400 749 z "},"{":{"ha":856,"x_min":236,"x_max":1188,"o":"m 554 219 l 638 400 l 489 515 l 754 657 l 874 919 l 1075 919 l 1188 1029 l 671 1029 l 503 660 l 236 518 l 383 400 l 289 192 q 281 144 281 174 q 357 33 281 75 q 497 0 421 0 l 656 0 l 768 110 l 632 110 q 543 175 543 110 q 554 219 543 196 z "},"|":{"ha":326,"x_min":1,"x_max":317,"o":"m 317 1029 l 188 0 l 1 0 l 131 1029 l 317 1029 z "},"}":{"ha":856,"x_min":-1,"x_max":950,"o":"m 632 811 l 549 631 l 697 515 l 432 372 l 313 110 l 111 110 l -1 0 l 515 0 l 683 369 l 950 513 l 803 631 l 897 838 q 906 885 906 863 q 829 996 906 954 q 689 1029 765 1029 l 531 1029 l 418 919 l 554 919 q 643 856 643 919 q 632 811 643 835 z "},"~":{"ha":310,"x_min":0,"x_max":614,"o":"m 426 914 l 228 1033 l 54 967 l 0 849 l 174 915 l 374 796 l 561 869 l 614 986 l 426 914 z "}," ":{"ha":707,"x_min":0,"x_max":0,"o":""}}}
